<?xml version="1.0" encoding="UTF-8"?>
<svg width="272px" height="300px" viewBox="0 0 272 300" version="1.1" xmlns="http://www.w3.org/2000/svg" xmlns:xlink="http://www.w3.org/1999/xlink">
    <!-- Generator: Sketch 42 (36781) - http://www.bohemiancoding.com/sketch -->
    <title>team copy</title>
    <desc>Created with Sketch.</desc>
    <defs></defs>
    <g id="Page-1" stroke="none" stroke-width="1" fill="none" fill-rule="evenodd">
        <g id="team-copy" fill-rule="nonzero">
            <g id="Group">
                <g id="Shape">
                    <path d="M135.849057,203.798349 C116.077358,203.798349 98.1389151,195.314151 84.9035377,181.601179 C84.8936321,189.81934 84.5950472,201.68066 82.4158019,210.335377 C83.8450472,211.209198 84.9544811,212.643396 85.1709906,214.42783 C87.9955189,237.411792 109.780189,254.741745 135.849057,254.741745 C161.912264,254.741745 183.696934,237.40967 186.527123,214.42783 C186.746462,212.641274 187.83184,211.209198 189.283019,210.338208 C187.103774,201.682783 186.804481,189.820047 186.794575,181.601179 C173.559198,195.314151 155.620755,203.798349 135.849057,203.798349 Z" fill="#FDC88E"></path>
                    <path d="M185.688679,182.645519 C172.564387,195.718868 155.092925,203.798349 135.849057,203.798349 C116.077358,203.798349 98.1389151,195.314151 84.9035377,181.601179 C84.8936321,189.81934 84.5950472,201.68066 82.4158019,210.335377 C83.8450472,211.209198 84.9544811,212.643396 85.1709906,214.42783 C86.4198113,224.5875 91.3818396,233.633491 98.7721698,240.574528 C132.853302,235.775236 171.534906,202.12217 185.688679,182.645519 Z" fill="#FFB980"></path>
                    <path d="M239.161557,216.448585 C238.935142,216.384906 238.708019,216.335377 238.475943,216.302123 L193.292689,209.522406 C193.016038,209.48066 192.424528,209.458726 192.142925,209.458726 C189.285142,209.458726 186.875236,211.589858 186.526415,214.42783 C183.696226,237.408962 161.911557,254.741745 135.848349,254.741745 C109.779481,254.741745 87.9948113,237.4125 85.170283,214.42783 C84.8165094,211.506368 82.1851415,209.309434 79.4101415,209.460849 C79.0783019,209.441745 78.7521226,209.46934 78.4040094,209.521698 L33.2207547,216.301415 C32.9886792,216.33467 32.7622642,216.384198 32.5351415,216.447877 C11.1771226,222.429481 0,243.445755 0,261.11533 L0,283.043632 C0,292.379717 8.31367925,299.975236 18.5341981,299.975236 L253.163208,299.975236 C263.383726,299.975236 271.697406,292.380425 271.697406,283.043632 L271.697406,261.11533 C271.698113,243.445755 260.520991,222.429481 239.161557,216.448585 Z" fill="#774C96"></path>
                    <path d="M186.792453,62.2889151 L90.5660377,62.2889151 C74.9610849,62.2889151 62.2641509,74.9858491 62.2641509,90.5908019 L62.2641509,124.553066 C62.2641509,168.249764 95.2754717,203.798349 135.849057,203.798349 C176.422642,203.798349 209.433962,168.249764 209.433962,124.553066 L209.433962,84.9304245 C209.433962,72.4464623 199.279245,62.2889151 186.792453,62.2889151 Z" fill="#FFE1B2"></path>
                    <path d="M175.471698,0.0247641509 L101.886792,0.0247641509 C91.2403302,0.0247641509 82.2912736,7.40943396 79.8806604,17.3235849 C60.3955189,19.8 45.2830189,36.4825472 45.2830189,56.6285377 L45.2830189,84.9304245 C45.2830189,99.5179245 51.4754717,113.126887 62.2641509,122.798349 L62.2641509,90.5908019 C62.2641509,74.9858491 74.9610849,62.2889151 90.5660377,62.2889151 L186.792453,62.2889151 C199.279245,62.2889151 209.433962,72.4457547 209.433962,84.9304245 L209.433962,122.791981 C220.224764,113.122642 226.415094,99.5143868 226.415094,84.9304245 L226.415094,50.9681604 C226.415094,22.8792453 203.563443,0.0247641509 175.471698,0.0247641509 Z" fill="#6F4F47"></path>
                </g>
            </g>
        </g>
    </g>
</svg>