<?xml version="1.0" encoding="UTF-8"?>
<svg width="363px" height="300px" viewBox="0 0 363 300" version="1.1" xmlns="http://www.w3.org/2000/svg" xmlns:xlink="http://www.w3.org/1999/xlink">
    <!-- Generator: Sketch 42 (36781) - http://www.bohemiancoding.com/sketch -->
    <title>team</title>
    <desc>Created with Sketch.</desc>
    <defs></defs>
    <g id="Page-1" stroke="none" stroke-width="1" fill="none" fill-rule="evenodd">
        <g id="team" fill-rule="nonzero">
            <g id="Group">
                <g transform="translate(0.000000, 50.943396)" id="Shape">
                    <path d="M89.7042453,134.580425 C76.6485849,134.580425 64.8035377,128.978066 56.0639151,119.923585 C56.0575472,125.349764 55.8601415,133.183019 54.4216981,138.89717 C55.365566,139.473821 56.0978774,140.421226 56.2408019,141.599292 C58.1058962,156.776179 72.4910377,168.21934 89.7042453,168.21934 C106.914623,168.21934 121.299057,156.774764 123.167689,141.599292 C123.312736,140.419104 124.029481,139.473821 124.9875,138.898585 C123.548349,133.183019 123.350943,125.349764 123.344575,119.922877 C114.604953,128.978066 102.759198,134.580425 89.7042453,134.580425 Z" fill="#FFB980"></path>
                    <path d="M122.614387,120.613443 C113.948349,129.245519 102.411085,134.581132 89.7042453,134.581132 C76.6485849,134.581132 64.8035377,128.978774 56.0639151,119.924292 C56.0575472,125.350472 55.8601415,133.183726 54.4216981,138.897877 C55.365566,139.474528 56.0978774,140.421934 56.2408019,141.6 C57.0650943,148.308255 60.3417453,154.281368 65.2216981,158.865566 C87.7259434,155.695755 113.268396,133.473821 122.614387,120.613443 Z" fill="#F8AB6B"></path>
                    <path d="M157.923821,142.933726 C157.773821,142.891981 157.624528,142.858726 157.470991,142.836792 L127.635142,138.360142 C127.452594,138.332547 127.062028,138.318396 126.875943,138.318396 C124.988915,138.318396 123.397642,139.725708 123.167689,141.6 C121.299057,156.775472 106.913915,168.220047 89.7042453,168.220047 C72.4903302,168.220047 58.1058962,156.776887 56.2408019,141.6 C56.0073113,139.671226 54.2695755,138.220047 52.4377358,138.320519 C52.2183962,138.307783 52.0033019,138.326179 51.7733491,138.360849 L21.9375,142.8375 C21.7839623,142.859434 21.6346698,142.891981 21.4846698,142.934434 C7.38042453,146.883255 0,160.761085 0,172.428538 L0,186.908491 C0,193.073349 5.48985849,198.088443 12.2384434,198.088443 L167.16934,198.088443 C173.918632,198.088443 179.407783,193.073349 179.407783,186.908491 L179.407783,172.428538 C179.407783,160.761085 172.027358,146.883255 157.923821,142.933726 Z" fill="#59C3A5"></path>
                    <path d="M123.34316,41.1389151 L59.8025943,41.1389151 C49.4985849,41.1389151 41.1141509,49.5233491 41.1141509,59.8273585 L41.1141509,82.253066 C41.1141509,111.10684 62.9122642,134.580425 89.7035377,134.580425 C116.494811,134.580425 138.292925,111.10684 138.292925,82.253066 L138.292925,56.0893868 C138.293632,47.8464623 131.588208,41.1389151 123.34316,41.1389151 Z" fill="#FDC88E"></path>
                    <path d="M115.867925,0.0247641509 L67.2778302,0.0247641509 C60.2476415,0.0247641509 54.3382075,4.90117925 52.746934,11.4474057 C39.8801887,13.0825472 29.9009434,24.0983491 29.9009434,37.4009434 L29.9009434,56.0893868 C29.9009434,65.721934 33.9898585,74.707783 41.1141509,81.0941038 L41.1141509,59.8266509 C41.1141509,49.5226415 49.4985849,41.1382075 59.8025943,41.1382075 L123.34316,41.1382075 C131.588915,41.1382075 138.293632,47.8450472 138.293632,56.0886792 L138.293632,81.0898585 C145.41934,74.7049528 149.50684,65.7191038 149.50684,56.0886792 L149.50684,33.6629717 C149.50684,15.1160377 134.416981,0.0247641509 115.867925,0.0247641509 Z" fill="#403A49"></path>
                </g>
                <g transform="translate(182.547170, 50.943396)" id="Shape">
                    <path d="M90.0127358,134.580425 C76.9570755,134.580425 65.1120283,128.978066 56.3724057,119.923585 C56.3660377,125.349764 56.1686321,133.183019 54.7301887,138.89717 C55.6740566,139.473821 56.4063679,140.421226 56.5492925,141.599292 C58.4143868,156.776179 72.7995283,168.21934 90.0127358,168.21934 C107.223113,168.21934 121.607547,156.774764 123.476179,141.599292 C123.621226,140.419104 124.337972,139.473821 125.295991,138.898585 C123.85684,133.183019 123.659434,125.349764 123.653066,119.922877 C114.913443,128.978066 103.068396,134.580425 90.0127358,134.580425 Z" fill="#FFB980"></path>
                    <path d="M122.922877,120.613443 C114.25684,129.245519 102.719575,134.581132 90.0127358,134.581132 C76.9570755,134.581132 65.1120283,128.978774 56.3724057,119.924292 C56.3660377,125.350472 56.1686321,133.183726 54.7301887,138.897877 C55.6740566,139.474528 56.4063679,140.421934 56.5492925,141.6 C57.3735849,148.308255 60.6502358,154.281368 65.5301887,158.865566 C88.034434,155.695755 113.576887,133.473821 122.922877,120.613443 Z" fill="#F8AB6B"></path>
                    <path d="M158.232311,142.933726 C158.083019,142.891981 157.933019,142.858726 157.779481,142.836792 L127.943632,138.360142 C127.761085,138.332547 127.370519,138.318396 127.184434,138.318396 C125.297406,138.318396 123.706132,139.725708 123.476179,141.6 C121.607547,156.775472 107.222406,168.220047 90.0127358,168.220047 C72.7988208,168.220047 58.4143868,156.776887 56.5492925,141.6 C56.3158019,139.671226 54.578066,138.220047 52.7462264,138.320519 C52.5268868,138.307783 52.3117925,138.326179 52.0818396,138.360849 L22.2459906,142.8375 C22.0924528,142.859434 21.9431604,142.891981 21.7931604,142.934434 C7.68962264,146.883962 0.309198113,160.761085 0.309198113,172.428538 L0.309198113,186.908491 C0.309198113,193.073349 5.7990566,198.088443 12.5476415,198.088443 L167.478538,198.088443 C174.22783,198.088443 179.716981,193.073349 179.716981,186.908491 L179.716981,172.428538 C179.716981,160.761085 172.336557,146.883255 158.232311,142.933726 Z" fill="#49A2CC"></path>
                    <path d="M123.651651,41.1389151 L60.1110849,41.1389151 C49.8070755,41.1389151 41.4226415,49.5233491 41.4226415,59.8273585 L41.4226415,82.253066 C41.4226415,111.10684 63.2207547,134.580425 90.0120283,134.580425 C116.803302,134.580425 138.601415,111.10684 138.601415,82.253066 L138.601415,56.0893868 C138.60283,47.8464623 131.897406,41.1389151 123.651651,41.1389151 Z" fill="#FDC88E"></path>
                    <path d="M116.176415,0.0247641509 L67.5870283,0.0247641509 C60.5568396,0.0247641509 54.6474057,4.90117925 53.0561321,11.4474057 C40.1893868,13.0825472 30.2101415,24.0983491 30.2101415,37.4009434 L30.2101415,56.0893868 C30.2101415,65.721934 34.2990566,74.707783 41.4233491,81.0941038 L41.4233491,59.8266509 C41.4233491,49.5226415 49.807783,41.1382075 60.1117925,41.1382075 L123.652358,41.1382075 C131.898113,41.1382075 138.60283,47.8450472 138.60283,56.0886792 L138.60283,81.0898585 C145.728538,74.7049528 149.816038,65.7191038 149.816038,56.0886792 L149.816038,33.6629717 C149.81533,15.1160377 134.726179,0.0247641509 116.176415,0.0247641509 Z" fill="#E2C357"></path>
                </g>
                <g transform="translate(45.283019, 0.000000)" id="Shape">
                    <path d="M135.849057,203.798349 C116.077358,203.798349 98.1389151,195.314151 84.9035377,181.601179 C84.8936321,189.81934 84.5950472,201.68066 82.4158019,210.335377 C83.8450472,211.209198 84.9544811,212.643396 85.1709906,214.42783 C87.9955189,237.411792 109.780189,254.741745 135.849057,254.741745 C161.912264,254.741745 183.696934,237.40967 186.527123,214.42783 C186.746462,212.641274 187.83184,211.209198 189.283019,210.338208 C187.103774,201.682783 186.804481,189.820047 186.794575,181.601179 C173.559198,195.314151 155.620755,203.798349 135.849057,203.798349 Z" fill="#FDC88E"></path>
                    <path d="M185.688679,182.645519 C172.564387,195.718868 155.092925,203.798349 135.849057,203.798349 C116.077358,203.798349 98.1389151,195.314151 84.9035377,181.601179 C84.8936321,189.81934 84.5950472,201.68066 82.4158019,210.335377 C83.8450472,211.209198 84.9544811,212.643396 85.1709906,214.42783 C86.4198113,224.5875 91.3818396,233.633491 98.7721698,240.574528 C132.853302,235.775236 171.534906,202.12217 185.688679,182.645519 Z" fill="#FFB980"></path>
                    <path d="M239.161557,216.448585 C238.935142,216.384906 238.708019,216.335377 238.475943,216.302123 L193.292689,209.522406 C193.016038,209.48066 192.424528,209.458726 192.142925,209.458726 C189.285142,209.458726 186.875236,211.589858 186.526415,214.42783 C183.696226,237.408962 161.911557,254.741745 135.848349,254.741745 C109.779481,254.741745 87.9948113,237.4125 85.170283,214.42783 C84.8165094,211.506368 82.1851415,209.309434 79.4101415,209.460849 C79.0783019,209.441745 78.7521226,209.46934 78.4040094,209.521698 L33.2207547,216.301415 C32.9886792,216.33467 32.7622642,216.384198 32.5351415,216.447877 C11.1771226,222.429481 0,243.445755 0,261.11533 L0,283.043632 C0,292.379717 8.31367925,299.975236 18.5341981,299.975236 L253.163208,299.975236 C263.383726,299.975236 271.697406,292.380425 271.697406,283.043632 L271.697406,261.11533 C271.698113,243.445755 260.520991,222.429481 239.161557,216.448585 Z" fill="#F45B69"></path>
                    <path d="M186.792453,62.2889151 L90.5660377,62.2889151 C74.9610849,62.2889151 62.2641509,74.9858491 62.2641509,90.5908019 L62.2641509,124.553066 C62.2641509,168.249764 95.2754717,203.798349 135.849057,203.798349 C176.422642,203.798349 209.433962,168.249764 209.433962,124.553066 L209.433962,84.9304245 C209.433962,72.4464623 199.279245,62.2889151 186.792453,62.2889151 Z" fill="#FFE1B2"></path>
                    <path d="M175.471698,0.0247641509 L101.886792,0.0247641509 C91.2403302,0.0247641509 82.2912736,7.40943396 79.8806604,17.3235849 C60.3955189,19.8 45.2830189,36.4825472 45.2830189,56.6285377 L45.2830189,84.9304245 C45.2830189,99.5179245 51.4754717,113.126887 62.2641509,122.798349 L62.2641509,90.5908019 C62.2641509,74.9858491 74.9610849,62.2889151 90.5660377,62.2889151 L186.792453,62.2889151 C199.279245,62.2889151 209.433962,72.4457547 209.433962,84.9304245 L209.433962,122.791981 C220.224764,113.122642 226.415094,99.5143868 226.415094,84.9304245 L226.415094,50.9681604 C226.415094,22.8792453 203.563443,0.0247641509 175.471698,0.0247641509 Z" fill="#6F4F47"></path>
                </g>
            </g>
        </g>
    </g>
</svg>